<?xml version="1.0" standalone="no"?>
<!DOCTYPE svg PUBLIC "-//W3C//DTD SVG 20010904//EN"
 "http://www.w3.org/TR/2001/REC-SVG-20010904/DTD/svg10.dtd">
<svg version="1.0" xmlns="http://www.w3.org/2000/svg"
 width="1357.000000pt" height="412.000000pt" viewBox="0 0 1357.000000 412.000000"
 preserveAspectRatio="xMidYMid meet">
<metadata>
Created by potrace 1.15, written by Peter Selinger 2001-2017
</metadata>
<g transform="translate(0.000000,412.000000) scale(0.100000,-0.100000)"
fill="#000000" stroke="none">
<path d="M1093 3163 l-912 -958 0 -397 -1 -398 915 0 915 0 0 -485 0 -485 465
0 465 0 0 880 0 880 -910 2 -911 3 911 958 910 957 -468 0 -468 0 -911 -957z"/>
<path d="M3320 3635 c0 -267 2 -485 4 -485 2 0 195 201 428 448 234 246 438
458 452 471 l26 24 0 -469 -1 -469 -454 -477 -455 -477 0 -491 0 -490 920 0
920 0 0 490 c0 270 -2 490 -4 490 -2 0 -199 -206 -438 -457 -240 -252 -445
-467 -457 -477 l-21 -19 0 469 1 469 459 483 460 482 0 485 0 485 -920 0 -920
0 0 -485z"/>
<path d="M6000 1710 l0 -480 40 0 40 0 0 480 0 480 -40 0 -40 0 0 -480z"/>
<path d="M8502 1989 c-56 -28 -109 -91 -127 -153 -23 -77 -19 -171 9 -231 43
-91 106 -127 222 -127 140 0 229 85 249 240 l7 52 -121 0 -121 0 0 -27 c0 -16
-3 -38 -6 -50 -6 -22 -4 -23 50 -23 62 0 68 -9 32 -45 -67 -67 -180 -31 -206
66 -41 152 126 271 226 162 l32 -35 51 28 c28 16 51 34 51 39 0 22 -66 88
-104 106 -60 27 -187 26 -244 -2z"/>
<path d="M6467 1753 c-37 -137 -67 -251 -67 -255 0 -5 27 -8 60 -8 l59 0 10
38 c5 20 19 81 32 135 13 53 26 92 30 85 4 -7 22 -68 40 -135 32 -119 34 -123
61 -123 25 0 33 11 95 133 l68 132 5 -130 5 -130 62 -3 62 -3 -4 78 c-3 43 -8
158 -11 256 l-6 177 -53 0 -53 0 -73 -144 -74 -145 -39 145 -39 144 -52 0 -51
0 -67 -247z"/>
<path d="M7135 1750 c-69 -137 -125 -252 -125 -255 0 -3 29 -5 65 -5 l65 0 22
45 22 45 86 0 86 0 12 -45 12 -45 60 0 c33 0 60 3 60 8 1 4 -27 118 -62 255
l-63 247 -57 0 -58 0 -125 -250z"/>
<path d="M7577 1763 c-15 -131 -27 -246 -27 -255 0 -16 13 -18 135 -18 125 0
135 1 135 19 0 10 3 33 6 50 l7 31 -77 0 c-42 0 -76 3 -76 8 0 14 40 347 45
375 l5 27 -63 0 -63 0 -27 -237z"/>
<path d="M8077 1977 c-8 -13 -67 -128 -131 -255 l-116 -232 68 0 68 0 22 45
22 46 88 -3 87 -3 9 -42 9 -43 63 0 c35 0 64 3 64 8 0 4 -29 117 -64 252 l-63
245 -55 3 c-49 3 -57 0 -71 -21z"/>
<path d="M8957 1745 l-127 -255 69 0 69 0 19 45 18 45 87 0 88 0 11 -45 11
-45 65 0 c57 0 64 2 59 18 -2 9 -28 107 -56 217 -28 110 -56 217 -61 238 l-10
37 -57 0 -57 0 -128 -255z"/>
<path d="M11609 1215 c-43 -24 -62 -63 -67 -142 -4 -63 -7 -73 -23 -73 -16 0
-19 -8 -19 -55 0 -48 2 -55 20 -55 19 0 20 -7 20 -130 l0 -130 60 0 60 0 0
130 0 130 45 0 45 0 0 55 0 55 -45 0 -45 0 0 49 c0 58 16 76 60 66 l30 -7 0
55 c0 41 -4 56 -16 61 -28 11 -98 6 -125 -9z"/>
<path d="M7950 1095 l0 -125 -32 20 c-43 26 -93 25 -148 -2 -129 -65 -134
-262 -10 -346 29 -20 44 -23 92 -20 37 3 64 11 78 23 18 16 20 16 20 2 0 -14
11 -17 60 -17 l60 0 0 295 0 295 -60 0 -60 0 0 -125z m-25 -220 c36 -35 35
-96 -1 -124 -62 -48 -131 -3 -125 82 2 27 47 67 76 67 14 0 37 -11 50 -25z"/>
<path d="M8970 1213 c-45 -16 -56 -100 -18 -127 50 -35 108 -4 108 57 0 38 -7
50 -37 66 -23 12 -30 12 -53 4z"/>
<path d="M10920 925 l0 -295 60 0 60 0 0 295 0 295 -60 0 -60 0 0 -295z"/>
<path d="M12695 1208 c-28 -16 -35 -28 -35 -65 0 -61 58 -92 108 -57 25 17 31
79 10 107 -17 22 -59 29 -83 15z"/>
<path d="M6480 900 l0 -270 65 0 65 0 0 110 0 110 75 0 75 0 0 60 0 60 -75 0
-75 0 0 45 0 45 80 0 80 0 0 55 0 55 -145 0 -145 0 0 -270z"/>
<path d="M10160 1115 l0 -55 55 0 55 0 0 -215 0 -215 65 0 65 0 0 215 0 215
55 0 55 0 0 55 0 55 -175 0 -175 0 0 -55z"/>
<path d="M7417 991 c-29 -15 -37 -16 -37 -5 0 10 -15 14 -60 14 l-60 0 0 -185
0 -185 60 0 60 0 0 115 c0 102 2 117 20 135 24 24 53 26 74 4 13 -12 16 -40
16 -135 l0 -119 60 0 60 0 0 149 c0 137 -2 150 -22 176 -23 30 -74 55 -111 55
-12 0 -39 -9 -60 -19z"/>
<path d="M8235 996 c-137 -61 -139 -291 -3 -362 41 -21 120 -18 152 7 21 17
26 18 26 5 0 -13 12 -16 60 -16 l60 0 0 185 0 185 -60 0 c-45 0 -60 -4 -60
-14 0 -11 -8 -10 -37 5 -43 22 -95 24 -138 5z m158 -127 c25 -31 22 -85 -8
-114 -35 -35 -76 -33 -109 6 -34 41 -33 73 4 111 26 25 36 29 63 24 18 -3 40
-16 50 -27z"/>
<path d="M8706 1000 c-35 -11 -82 -54 -104 -95 -8 -17 -16 -56 -16 -90 -2
-115 76 -195 188 -195 73 0 86 11 86 75 0 51 -10 69 -25 45 -12 -20 -75 -11
-100 15 -72 71 21 187 103 129 l22 -15 0 61 c0 56 -2 61 -26 70 -30 12 -88 12
-128 0z"/>
<path d="M9246 995 c-146 -52 -170 -265 -38 -347 31 -19 51 -23 118 -23 70 0
85 3 121 27 70 46 101 149 69 233 -39 101 -158 150 -270 110z m129 -118 c56
-48 23 -147 -50 -147 -73 0 -107 98 -51 146 34 30 67 30 101 1z"/>
<path d="M9765 1003 c-11 -3 -26 -10 -34 -17 -11 -8 -15 -8 -18 2 -3 8 -25 12
-64 12 l-59 0 0 -185 0 -185 60 0 60 0 0 115 c0 102 2 117 20 135 25 25 52 26
73 2 14 -15 17 -41 17 -135 l0 -117 60 0 60 0 0 143 c0 152 -6 176 -51 209
-27 20 -89 31 -124 21z"/>
<path d="M10580 988 c-133 -67 -128 -298 7 -354 46 -20 141 -18 183 4 34 17
80 73 80 98 0 8 -19 13 -56 16 -43 2 -59 -1 -71 -14 -33 -37 -98 -17 -116 35
-6 16 4 17 123 17 146 0 139 -5 119 79 -13 60 -44 100 -93 122 -56 25 -122 24
-176 -3z"/>
<path d="M11216 1000 c-104 -33 -152 -205 -85 -304 77 -114 309 -94 331 29 3
17 -4 21 -52 26 -46 4 -57 2 -68 -13 -15 -21 -70 -24 -94 -5 -9 6 -19 22 -23
35 l-6 22 127 0 126 0 -4 54 c-5 62 -35 114 -81 141 -33 20 -130 28 -171 15z"/>
<path d="M11885 996 c-73 -27 -125 -106 -125 -192 0 -48 46 -130 88 -156 54
-33 181 -33 234 0 50 31 78 80 85 146 8 76 -28 152 -87 185 -52 29 -140 37
-195 17z m123 -112 c33 -23 45 -60 31 -101 -29 -89 -155 -61 -152 34 2 66 69
103 121 67z"/>
<path d="M12387 991 c-29 -15 -37 -16 -37 -5 0 10 -15 14 -60 14 l-60 0 0
-185 0 -185 60 0 60 0 0 115 c0 102 2 117 20 135 24 24 53 26 74 4 13 -12 16
-40 16 -135 l0 -119 60 0 60 0 0 149 c0 137 -2 150 -22 176 -23 30 -74 55
-111 55 -12 0 -39 -9 -60 -19z"/>
<path d="M12975 999 c-88 -25 -146 -150 -115 -245 29 -88 91 -133 183 -134 75
0 87 11 87 76 0 50 -2 55 -17 48 -10 -4 -34 -9 -53 -11 -47 -6 -82 29 -82 83
0 68 75 107 130 68 l22 -15 0 61 c0 56 -2 61 -26 70 -30 12 -88 12 -129 -1z"/>
<path d="M13285 996 c-137 -61 -139 -291 -3 -362 41 -21 120 -18 152 7 21 17
26 18 26 5 0 -13 12 -16 55 -16 l55 0 0 185 0 185 -55 0 c-40 0 -55 -4 -55
-14 0 -11 -8 -10 -37 5 -43 22 -95 24 -138 5z m158 -127 c25 -31 22 -85 -8
-114 -35 -35 -76 -33 -109 6 -34 41 -33 73 4 111 26 25 36 29 63 24 18 -3 40
-16 50 -27z"/>
<path d="M6830 860 c0 -165 9 -191 73 -221 50 -22 143 -25 190 -5 18 7 45 28
60 45 27 32 27 35 27 177 l0 144 -60 0 -60 0 0 -119 c0 -132 -7 -151 -59 -151
-47 0 -56 21 -60 152 l-3 118 -54 0 -54 0 0 -140z"/>
<path d="M8940 815 l0 -185 55 0 55 0 0 185 0 185 -55 0 -55 0 0 -185z"/>
<path d="M12670 815 l0 -185 60 0 60 0 0 185 0 185 -60 0 -60 0 0 -185z"/>
</g>
</svg>
